<?xml version="1.0"?>
<svg xmlns="http://www.w3.org/2000/svg" id="Layer_1" enable-background="new 0 0 512 512" height="512px" viewBox="0 0 512 512" width="512px" class=""><g><g><g><path d="m152 84c0 11.046 8.954 20 20 20h4-68c-11.046 0-20-8.954-20-20 0-11.046 8.954-20 20-20h68-4c-11.046 0-20 8.954-20 20z" fill="#b92323" data-original="#B92323" class=""/></g><g><g><path d="m328 32h64c8.837 0 16 7.163 16 16v416c0 8.837-7.163 16-16 16h-96c8.837 0 16-7.163 16-16v-416c0-8.837 7.163-16 16-16z" fill="#cd3232" data-original="#CD3232" class=""/></g><g><path d="m360 32h-32c-8.837 0-16 7.163-16 16v416c0 8.837-7.163 16-16 16h64z" fill="#b92323" data-original="#B92323" class=""/></g><g><path d="m296 32h-256c-8.837 0-16 7.163-16 16v416c0 8.837 7.163 16 16 16h256c8.837 0 16-7.163 16-16v-416c0-8.837-7.163-16-16-16zm-48 52c0 11.046-8.954 20-20 20h-120c-11.046 0-20-8.954-20-20 0-11.046 8.954-20 20-20h120c11.046 0 20 8.954 20 20z" fill="#ff4646" data-original="#FF4646" class="active-path" style="fill:#C90F1A" data-old_color="#ff4646"/></g></g><g><path d="m254.224 400h217.776c8.837 0 16-7.163 16-16v-160c0-8.837-7.163-16-16-16h-217.776c-4.003 0-7.861 1.501-10.812 4.206l-85.515 78.389c-3.758 3.444-5.897 8.307-5.897 13.405 0 5.098 2.139 9.961 5.897 13.406l85.515 78.389c2.951 2.704 6.809 4.205 10.812 4.205z" fill="#32283c" data-original="#32283C" class=""/></g><g><path d="m254.224 400h185.776c8.837 0 16-7.163 16-16v-160c0-8.837-7.163-16-16-16h-185.776c-4.003 0-7.861 1.501-10.812 4.206l-85.515 78.389c-3.758 3.444-5.897 8.307-5.897 13.405 0 5.098 2.139 9.961 5.897 13.406l85.515 78.389c2.951 2.704 6.809 4.205 10.812 4.205z" fill="#463c4b" data-original="#463C4B" class=""/></g><g><circle cx="200" cy="304" fill="#32283c" r="21.333" data-original="#32283C" class=""/></g><g><g><path d="m296 304c-17.645 0-32-14.355-32-32s14.355-32 32-32 32 14.355 32 32-14.355 32-32 32zm0-48c-8.822 0-16 7.178-16 16s7.178 16 16 16 16-7.178 16-16-7.178-16-16-16z" fill="#e6e6eb" data-original="#E6E6EB" class="" style="fill:#E6E6EB"/></g><g><path d="m392 368c-17.645 0-32-14.355-32-32s14.355-32 32-32 32 14.355 32 32-14.355 32-32 32zm0-48c-8.822 0-16 7.178-16 16s7.178 16 16 16 16-7.178 16-16-7.178-16-16-16z" fill="#e6e6eb" data-original="#E6E6EB" class="" style="fill:#E6E6EB"/></g><g><path d="m296 360c-2.047 0-4.095-.781-5.657-2.343-3.125-3.124-3.125-8.19 0-11.314l96-96c3.124-3.124 8.189-3.124 11.313 0 3.125 3.124 3.125 8.19 0 11.314l-96 96c-1.561 1.562-3.609 2.343-5.656 2.343z" fill="#e6e6eb" data-original="#E6E6EB" class="" style="fill:#E6E6EB"/></g></g><g><path d="m200 312h-24c-39.701 0-72-32.299-72-72v-144c0-4.418 3.582-8 8-8s8 3.582 8 8v144c0 30.879 25.122 56 56 56h24c4.418 0 8 3.582 8 8s-3.582 8-8 8z" fill="#e6e6eb" data-original="#E6E6EB" class="" style="fill:#E6E6EB"/></g></g></g> </svg>
